<svg id="black" xmlns="http://www.w3.org/2000/svg" width="349" height="83" viewBox="0 0 349 83">
  <defs>
    <style>
      .cls-1, .cls-2 {
        fill: #fff;
        fill-rule: evenodd;
      }

      .cls-1 {
        stroke: #fff;
        stroke-linejoin: round;
        stroke-width: 2px;
      }
    </style>
  </defs>
  <path id="I_YOU" data-name="I    YOU" class="cls-1" d="M3.677,65.8a2.723,2.723,0,0,0,.595.892,1.588,1.588,0,0,0,.85.467,1.685,1.685,0,0,0,1.147-.34,138.73,138.73,0,0,1,3.738-13.551q2.208-6.669,4.715-13.254T19.99,26.934q2.76-6.5,5.48-12.956a7.543,7.543,0,0,0,.34-2.506,12.023,12.023,0,0,0-.3-2.8,2.845,2.845,0,0,0-.807-1.614Q24.2,6.671,23.6,8.2L4.4,58.157a8.6,8.6,0,0,1-.255.934,19.846,19.846,0,0,0-.467,1.954q-0.213,1.105-.34,2.166a4.375,4.375,0,0,0,.042,1.657A4.9,4.9,0,0,0,3.677,65.8ZM210.047,80.46a1.457,1.457,0,0,0,1.4.043,3.357,3.357,0,0,0,1.232-1.147,6,6,0,0,0,.807-1.657,60.033,60.033,0,0,1,2.8-7.562q1.953-4.5,4.588-9.9t5.65-11.3q3.015-5.9,6.032-11.767t5.777-11.342q2.76-5.48,4.8-9.94t3.143-7.646q1.1-3.186.765-4.46-0.51-2.208-1.912-1.147a14.936,14.936,0,0,0-3.228,4.121Q240.08,9.815,238,14.19t-4.036,8.751q-1.956,4.377-3.611,8.071t-2.506,5.4q-0.6.426-1.869-1.062A45.275,45.275,0,0,1,223,31.352q-1.7-2.5-3.7-5.692t-3.908-6.2q-1.911-3.015-3.7-5.437a26.477,26.477,0,0,0-2.973-3.526q-1.53-.765-1.785-0.127a3.44,3.44,0,0,0,.425,2.251,37.335,37.335,0,0,0,2.082,4.036q1.4,2.421,3.143,5.1t3.611,5.48q1.868,2.8,3.484,5.225t2.8,4.248a22.609,22.609,0,0,1,1.53,2.591,21.985,21.985,0,0,1-1.36,7.561,45.6,45.6,0,0,1-3.4,7.264q-2.04,3.527-4.333,6.839a72.387,72.387,0,0,0-3.993,6.415,27.287,27.287,0,0,0-2.464,5.9,8.221,8.221,0,0,0,.255,5.353A3.485,3.485,0,0,0,210.047,80.46ZM251.3,67.673a18.894,18.894,0,0,0,5.225-1.1,24.867,24.867,0,0,0,4.928-2.421,26.431,26.431,0,0,0,4.035-3.1,93.646,93.646,0,0,0,14.954-17.077A48.683,48.683,0,0,0,287.107,29.7a21.625,21.625,0,0,0,.212-11.13,16.185,16.185,0,0,0-4.418-7.6,14.635,14.635,0,0,0-15.08-3.016,16.051,16.051,0,0,0-6.924,5.31,21.972,21.972,0,0,0-4.079,10.408q-0.681.936-2.336,3.356T251,32.2q-1.828,2.762-3.441,5.225t-2.209,3.483a55.1,55.1,0,0,0-3.441,6.627,25.483,25.483,0,0,0-2.082,7.434,13.341,13.341,0,0,0,.935,6.882q1.357,3.186,5.607,4.97A10.324,10.324,0,0,0,251.3,67.673ZM244.074,52.21a46.976,46.976,0,0,1,4.248-9.176,98.013,98.013,0,0,1,6.457-9.558q3.653-4.8,7.307-8.963t6.882-7.434q3.228-3.27,5.183-4.97,5.352-.679,7.943.935a6.478,6.478,0,0,1,3.059,4.8,17.178,17.178,0,0,1-.892,7.519,51.251,51.251,0,0,1-3.951,9.091,91.18,91.18,0,0,1-6.075,9.6,93,93,0,0,1-7.306,8.963,70.959,70.959,0,0,1-7.647,7.179,28.261,28.261,0,0,1-7.051,4.333,7.542,7.542,0,0,1-5.608.34q-2.379-.934-3.228-4.758A15.018,15.018,0,0,1,244.074,52.21Zm52.464,14.741a40.1,40.1,0,0,0,8.793-5.055A98.9,98.9,0,0,0,315.7,53.1q5.438-5.225,10.578-11.087T335.79,30.12a88.789,88.789,0,0,0,7.051-11.215,30.481,30.481,0,0,0,3.271-9.048q0.594-3.865-1.784-5.48a0.808,0.808,0,0,0-.467.382,6.508,6.508,0,0,1-.467.552A79.142,79.142,0,0,1,338,17.461a131.834,131.834,0,0,1-7.817,12.659q-4.377,6.288-9.218,12.064a127.1,127.1,0,0,1-9.558,10.28,69.72,69.72,0,0,1-8.921,7.349,18.818,18.818,0,0,1-7.222,3.313,4.134,4.134,0,0,1-4.5-1.869q-1.486-2.336-.722-8.2a87.627,87.627,0,0,1,4.078-15.675q3.313-9.813,9.941-24.341c0.056-.113.225-0.438,0.51-0.977s0.452-.863.509-0.977q0.084-.593.17-1.274a7.356,7.356,0,0,0,.043-1.359,3.465,3.465,0,0,0-.3-1.232,1.924,1.924,0,0,0-.934-0.892q-0.171-.084-1.487,1.954t-3.229,5.522q-1.911,3.485-4.163,8.071t-4.248,9.643a101.885,101.885,0,0,0-3.441,10.28,51.19,51.19,0,0,0-1.784,9.983,25.12,25.12,0,0,0,.765,8.666,12.232,12.232,0,0,0,4.163,6.372Q292.672,68.436,296.538,66.951Z"/>
  <path id="for" class="cls-2" d="M67.35,65.042a7.693,7.693,0,0,0,.876.8L69.14,65q0.075-.075.762-1.485t1.676-3.352q0.989-1.942,1.98-3.961t1.6-3.313a27.868,27.868,0,0,1,3.428-5.675,9.989,9.989,0,0,1,3.885-2.933,14.477,14.477,0,0,1,5.18-.99q2.971-.075,7.313.152L95.8,42.61a4.755,4.755,0,0,0-2.933-1.638,38.634,38.634,0,0,0-4.647-.876q-2.4-.3-4.3-0.457t-1.9-.457V38.268q0.989-1.98,1.676-3.352T85.1,32.1q0.723-1.446,1.257-2.361,1.9-3.731,3.352-7.236a26.916,26.916,0,0,1,3.39-6.056,11.845,11.845,0,0,1,4.951-3.809q3.008-1.257,8.112-.419a5.57,5.57,0,0,0,.61.876,10.246,10.246,0,0,0,1.028,1.1,3.414,3.414,0,0,0,1.257.762,1.643,1.643,0,0,0,1.371-.152,4.263,4.263,0,0,0-.076-1.79,5.1,5.1,0,0,0-.762-1.638q-2.97-3.656-5.789-4.494a7.605,7.605,0,0,0-5.446.343,15.131,15.131,0,0,0-5.065,3.961,48.438,48.438,0,0,0-4.646,6.322q-2.21,3.542-4.113,7.389t-3.5,7.2q-1.6,3.353-2.856,5.751A8.6,8.6,0,0,1,76,40.858a8.321,8.321,0,0,1-1.219.533q-0.991.382-2.171,0.8t-2.209.8q-1.028.382-1.257,0.457a4.565,4.565,0,0,1-.838.381q-0.61.229-1.295,0.533t-1.295.533c-0.407.152-.686,0.255-0.838,0.3a0.867,0.867,0,0,0-.076.648c0.05,0.28.114,0.559,0.191,0.838a2.666,2.666,0,0,0,.3.724,0.522,0.522,0,0,0,.419.3h7.236l-6.4,14.7a2.379,2.379,0,0,0,0,1.676A4.573,4.573,0,0,0,67.35,65.042Zm44.674,0.609a17.188,17.188,0,0,0,6.361-2.666A25.994,25.994,0,0,0,123.869,58a30.657,30.657,0,0,0,4.037-6.17,21.5,21.5,0,0,0,2.019-6.36,10.308,10.308,0,0,0-.533-5.522,6.97,6.97,0,0,0-3.695-3.618q-2.7-1.257-7.426-.648a9.788,9.788,0,0,0-4.38,2.171,36.41,36.41,0,0,0-5.066,4.761,42.162,42.162,0,0,0-4.57,6.208,25.186,25.186,0,0,0-2.895,6.551,10.3,10.3,0,0,0-.038,5.751,6.274,6.274,0,0,0,4,3.885A11.978,11.978,0,0,0,112.024,65.652Zm-7.5-9.179a15.238,15.238,0,0,1,1.866-4.19,29.14,29.14,0,0,1,3.047-4q1.751-1.942,3.542-3.618t3.465-3.085q1.676-1.409,2.743-2.4,4.722-.686,6.741.419a3.59,3.59,0,0,1,2.057,3.237,10.387,10.387,0,0,1-1.524,4.989A33.783,33.783,0,0,1,122.5,53.5,42.825,42.825,0,0,1,117.2,58.72a27.223,27.223,0,0,1-5.522,3.656,8.292,8.292,0,0,1-4.609.99q-1.981-.266-2.59-2.7A8.092,8.092,0,0,1,104.522,56.473ZM135.181,65.5a3.587,3.587,0,0,0,.685.343q0.609,0,1.943-2.514l3.351-6.322q2.018-3.808,4.761-8.265a60.361,60.361,0,0,1,6.094-8.265,35.96,35.96,0,0,1,7.312-6.4,15.808,15.808,0,0,1,8.531-2.666q0.99-1.523.5-2.171a2.279,2.279,0,0,0-1.829-.685,15.652,15.652,0,0,0-3.2.3q-1.868.343-3.618,0.838t-3.123.99a8.613,8.613,0,0,0-1.676.724,29.511,29.511,0,0,0-5.675,4.685,54.811,54.811,0,0,0-4.684,5.675,0.769,0.769,0,0,1-1.143-.114,14.234,14.234,0,0,1-1.066-1.295,8.842,8.842,0,0,0-1.067-1.219,0.683,0.683,0,0,0-1.066.038,9.672,9.672,0,0,0-1.561,3.009,44.922,44.922,0,0,0-1.486,5.027q-0.685,2.856-1.295,5.979t-0.99,5.713q-0.382,2.59-.571,4.3a4.116,4.116,0,0,0-.038,1.79C134.469,65.107,134.774,65.271,135.181,65.5Z"/>
</svg>
