<svg id="hand" enable-background="new 0 0 300 300" height="512" viewBox="0 0 300 300" width="512" xmlns="http://www.w3.org/2000/svg"><g><circle cx="136.867" cy="186.619" fill="#eaeaea" r="86"/><g fill="#4c241d"><path d="m260.524 214.275c-1.023 0-2.047-.391-2.828-1.172l-11.312-11.312c-1.562-1.562-1.562-4.094 0-5.656s4.094-1.562 5.656 0l11.312 11.312c1.562 1.562 1.562 4.094 0 5.656-.782.781-1.805 1.172-2.828 1.172z"/><path d="m249.211 214.275c-1.023 0-2.047-.391-2.828-1.172-1.562-1.562-1.562-4.094 0-5.656l11.312-11.312c1.562-1.562 4.094-1.562 5.656 0s1.562 4.094 0 5.656l-11.312 11.312c-.781.781-1.804 1.172-2.828 1.172z"/><circle cx="258.867" cy="244.619" r="4"/><path d="m239.461 163.302c-5.295 0-10.201-3.438-11.814-8.76-.955-3.154-.627-6.492.928-9.398s4.148-5.033 7.303-5.988c6.506-1.975 13.41 1.717 15.385 8.229 1.973 6.51-1.719 13.412-8.229 15.387-1.188.358-2.391.53-3.573.53zm-.01-16.678c-.416 0-.838.061-1.256.188-1.109.336-2.02 1.084-2.566 2.105s-.662 2.195-.326 3.305c.693 2.291 3.123 3.592 5.41 2.893 2.289-.693 3.586-3.121 2.893-5.41-.569-1.872-2.293-3.081-4.155-3.081z"/></g><g><path d="m224.64 240.837-28.279-43.821c4.803-4.358 8.31-12.53 7.686-19.177l-5.657-84.215c-.58-6.171-2.413-11.134-8.605-11.407-7.28-.321-12.871 4.608-12.932 11.839-.106 12.584-5.983 36.324-5.983 36.324l-29.77-87.955c-1.796-4.606-6.473-7.419-11.383-6.848l-.282.032c-7.102.826-11.666 7.878-9.508 14.649 7.577 23.772 21.075 68.459 21.075 68.459l-50.777-83.147c-2.833-4.732-8.891-6.392-13.741-3.766l-.23.125c-5.204 2.818-7.133 9.248-4.338 14.409 11.156 20.601 44.923 80.183 44.923 80.183l-51.931-55.077c-4.127-4.397-11.253-3.887-14.711 1.052-2.363 3.375-2.281 7.888.202 11.175l48.026 62.282-43.621-27.09c-4.517-2.928-10.545-1.717-13.58 2.729-2.756 4.038-2.157 9.481 1.411 12.823l46.949 34.956c4.395 4.116 8.501 8.531 12.288 13.213l19.523 24.133c6.776 8.377 13.246 14.648 23.451 14.086l27.034 48.603" fill="#ffded5"/><path d="m171.883 273.41c-1.404 0-2.768-.74-3.5-2.057l-25.881-46.533c-11.031-.451-18.01-7.908-24.217-15.584l-19.523-24.133c-3.609-4.463-7.561-8.719-11.748-12.656l-46.768-34.82c-.121-.09-.236-.188-.346-.289-5.043-4.723-5.875-12.291-1.979-17.998 4.295-6.289 12.664-7.971 19.059-3.832l24.786 15.392-34.535-44.783c-3.562-4.723-3.678-11.104-.311-15.914 2.34-3.344 6.02-5.43 10.092-5.723 4.096-.289 8.02 1.252 10.813 4.227l29.34 31.117c-10.313-18.303-22.811-40.586-28.766-51.582-3.834-7.08-1.166-15.975 5.951-19.83 6.98-3.779 15.365-1.484 19.307 5.104l34.352 56.254c-4.006-13.088-8.547-27.795-11.893-38.295-1.391-4.363-.764-9.072 1.719-12.918 2.494-3.863 6.553-6.385 11.137-6.918 7.023-.805 13.398 3.039 15.855 9.334l25.209 74.471c1.4-7.184 2.768-15.621 2.816-21.42.039-4.471 1.748-8.533 4.814-11.443 3.184-3.021 7.57-4.57 12.293-4.359 7.332.324 11.508 5.381 12.412 15.031l5.666 84.32c.611 6.498-2.09 14.4-6.617 19.906l26.582 41.191c1.197 1.855.664 4.33-1.193 5.529-1.852 1.197-4.33.664-5.529-1.191l-28.28-43.823c-1.061-1.643-.775-3.814.674-5.129 4.07-3.695 6.877-10.654 6.391-15.844l-5.666-84.32c-.705-7.5-3.066-7.604-4.791-7.68-2.584-.121-4.842.658-6.434 2.172-1.5 1.422-2.303 3.395-2.322 5.707-.109 12.904-5.855 36.262-6.1 37.25-.426 1.725-1.939 2.961-3.715 3.035-1.799.053-3.389-1.031-3.957-2.713l-29.77-87.955c-1.074-2.74-4.059-4.529-7.133-4.158-2.482.289-4.43 1.496-5.623 3.346-1.182 1.83-1.48 4.072-.818 6.148 7.5 23.529 20.957 68.07 21.094 68.518.58 1.926-.359 3.984-2.195 4.807-1.834.82-3.996.154-5.049-1.566l-50.775-83.149c-1.754-2.93-5.443-3.941-8.422-2.332-3.467 1.879-4.689 5.908-2.955 9.111 11.01 20.332 44.547 79.52 44.885 80.115.998 1.762.523 3.99-1.105 5.191-1.633 1.201-3.9.994-5.285-.475l-51.93-55.076c-1.148-1.223-2.736-1.824-4.414-1.73-1.658.119-3.156.969-4.109 2.332-1.373 1.961-1.326 4.562.117 6.473l48.002 62.248c1.182 1.533 1.098 3.689-.199 5.125-1.301 1.434-3.438 1.732-5.078.717l-43.621-27.09c-2.779-1.803-6.338-1.088-8.166 1.586-1.619 2.371-1.318 5.498.697 7.512l46.746 34.805c.121.09.236.188.346.289 4.518 4.23 8.777 8.812 12.664 13.617l19.521 24.133c6.891 8.52 12.187 13.072 20.121 12.607 1.561-.082 2.973.713 3.717 2.051l27.033 48.604c1.074 1.93.379 4.365-1.553 5.439-.616.342-1.282.504-1.94.504z" fill="#4c241d"/></g><g><path d="m167.444 137.628c1.157-2.287 2.302-4.538 3.311-6.745.353-.774.574-1.798.701-2.936" fill="#edebdc"/><path d="m167.42 141.486c-.584 0-1.174-.131-1.723-.408-1.971-.998-2.82-3.285-1.822-5.256l.121-.24c1.092-2.156 2.168-4.279 3.119-6.361.055-.117.238-.588.365-1.717.242-2.195 2.248-3.779 4.418-3.531 2.195.244 3.777 2.223 3.531 4.418-.186 1.676-.525 3.035-1.037 4.154-.994 2.176-2.117 4.396-3.26 6.65-.718 1.422-2.202 2.291-3.712 2.291z" fill="#4c241d"/></g><path d="" style="fill:none;stroke:#f4aeab;stroke-width:8;stroke-linecap:round;stroke-linejoin:round;stroke-miterlimit:10"/><path d="m154.871 188.619c-1.359 0-2.684-.691-3.434-1.941-10.764-17.939-1.697-34.59 4.602-40.887 1.562-1.562 4.094-1.562 5.656 0 1.561 1.559 1.562 4.086.008 5.648-.605.617-13.582 14.162-3.406 31.121 1.137 1.895.523 4.352-1.371 5.488-.645.387-1.354.571-2.055.571z" fill="#f4aeab"/></g></svg>