<svg height="512pt" viewBox="0 0 512 512" width="512pt" xmlns="http://www.w3.org/2000/svg"><g fill="#607d8b"><path d="m256 512c-11.796875 0-21.332031-9.558594-21.332031-21.332031v-469.335938c0-11.773437 9.535156-21.332031 21.332031-21.332031s21.332031 9.558594 21.332031 21.332031v469.335938c0 11.773437-9.535156 21.332031-21.332031 21.332031zm0 0"/><path d="m426.667969 512c-11.796875 0-21.335938-9.558594-21.335938-21.332031v-469.335938c0-11.773437 9.539063-21.332031 21.335938-21.332031s21.332031 9.558594 21.332031 21.332031v469.335938c0 11.773437-9.535156 21.332031-21.332031 21.332031zm0 0"/><path d="m85.332031 512c-11.796875 0-21.332031-9.558594-21.332031-21.332031v-469.335938c0-11.773437 9.535156-21.332031 21.332031-21.332031s21.335938 9.558594 21.335938 21.332031v469.335938c0 11.773437-9.539063 21.332031-21.335938 21.332031zm0 0"/></g><path d="m170.667969 144c0-20.585938-16.746094-37.332031-37.335938-37.332031h-96c-20.585937 0-37.332031 16.746093-37.332031 37.332031v32c0 20.585938 16.746094 37.332031 37.332031 37.332031h96c20.589844 0 37.335938-16.746093 37.335938-37.332031zm0 0" fill="#00bcd4"/><path d="m474.667969 106.667969h-96c-20.589844 0-37.335938 16.746093-37.335938 37.332031v32c0 20.585938 16.746094 37.332031 37.335938 37.332031h96c20.585937 0 37.332031-16.746093 37.332031-37.332031v-32c0-20.585938-16.746094-37.332031-37.332031-37.332031zm0 0" fill="#4caf50"/><path d="m304 320h-96c-20.585938 0-37.332031 16.746094-37.332031 37.332031v32c0 20.589844 16.746093 37.335938 37.332031 37.335938h96c20.585938 0 37.332031-16.746094 37.332031-37.335938v-32c0-20.585937-16.746093-37.332031-37.332031-37.332031zm0 0" fill="#ffc107"/></svg>