<?xml version="1.0" encoding="iso-8859-1"?>
<!-- Generator: Adobe Illustrator 19.0.0, SVG Export Plug-In . SVG Version: 6.00 Build 0)  -->
<svg version="1.1" id="Capa_1" xmlns="http://www.w3.org/2000/svg" xmlns:xlink="http://www.w3.org/1999/xlink" x="0px" y="0px"
	 viewBox="0 0 512.001 512.001" style="enable-background:new 0 0 512.001 512.001;" xml:space="preserve">
<g>
	<g>
		<path d="M481.807,193.594L268.474,4.732c-7.122-6.306-17.832-6.312-24.954,0L30.187,193.594c-4.035,3.57-6.344,8.703-6.344,14.093
			v285.49c0,10.397,8.427,18.824,18.824,18.824h426.667c10.397,0,18.823-8.427,18.824-18.824v-285.49
			C488.157,202.297,485.848,197.165,481.807,193.594z M450.51,474.354H61.491v-258.19L256,43.966l194.51,172.198V474.354z"/>
	</g>
</g>
<g>
	<g>
		<path d="M319.373,308.079H192.628c-10.397,0-18.823,8.427-18.823,18.824v166.274h37.647V345.726h89.092v147.451h37.647h0.006
			V326.903C338.196,316.506,329.77,308.079,319.373,308.079z"/>
	</g>
</g>
<g>
</g>
<g>
</g>
<g>
</g>
<g>
</g>
<g>
</g>
<g>
</g>
<g>
</g>
<g>
</g>
<g>
</g>
<g>
</g>
<g>
</g>
<g>
</g>
<g>
</g>
<g>
</g>
<g>
</g>
</svg>
