<?xml version="1.0" encoding="iso-8859-1"?>
<!-- Generator: Adobe Illustrator 19.0.0, SVG Export Plug-In . SVG Version: 6.00 Build 0)  -->
<svg version="1.1" id="Capa_1" xmlns="http://www.w3.org/2000/svg" xmlns:xlink="http://www.w3.org/1999/xlink" x="0px" y="0px"
	 viewBox="0 0 512 512" style="enable-background:new 0 0 512 512;" xml:space="preserve">
<g>
	<polygon style="fill:#FCC69D;" points="222.337,81.007 309.921,81.007 269.635,130.448 269.635,130.448 	"/>
	<path style="fill:#FCC69D;" d="M340.753,58.607l-6.631-7.125c-10.694-11.491-25.686-18.018-41.384-18.018h-78.54v13.116
		c0,19.622,15.956,35.503,35.578,35.41l65.765-0.13L340.753,58.607z"/>
	<path style="fill:#FCC69D;" d="M251.796,406.381L251.796,406.381c16.508,12.958,37.299,19.207,58.216,17.494l3.172-0.26
		l54.863,54.863L502,362.963l-75.973-75.641L251.796,406.381z"/>
	<path style="fill:#FCC69D;" d="M115.304,293.663L10.002,398.965L179.9,478.535l89.632-89.964l0,0
		c36.845-1.336,71.818-16.571,97.889-42.641l97.028-97.028c10.813-10.813,10.813-28.344,0-39.158l0,0
		c-10.813-10.813-28.344-10.813-39.158,0L413,222.035l25.728-25.728c10.813-10.813,10.813-28.344,0-39.158l0,0
		c-10.813-10.813-28.344-10.813-39.158,0l-25.728,25.728l35.517-35.517c10.813-10.813,10.813-28.344,0-39.158l0,0
		c-10.813-10.813-28.344-10.813-39.158,0l-35.517,35.517l45.307-45.307c10.813-10.813,10.813-28.344,0-39.158l0,0
		c-10.813-10.813-28.344-10.813-39.158,0l-71.196,71.196"/>
	<path style="fill:#FCC69D;" d="M154.463,254.504l-27.026-27.026c-10.813-10.813-28.344-10.813-39.158,0l0,0
		c-10.813,10.813-10.813,28.344,0,39.158l27.026,27.026c10.813,10.813,28.344,10.813,39.158,0l0,0
		C165.276,282.85,165.276,265.317,154.463,254.504z"/>
	<path style="fill:#FCC69D;" d="M193.62,215.347l-40.463-40.463c-10.813-10.813-28.344-10.813-39.158,0l0,0
		c-10.813,10.813-10.813,28.344,0,39.158l40.463,40.463c10.813,10.813,28.344,10.813,39.158,0l0,0
		C204.433,243.691,204.433,226.16,193.62,215.347z"/>
	<path style="fill:#FCC69D;" d="M232.779,176.188l-50.252-50.252c-10.813-10.813-28.344-10.813-39.158,0l0,0
		c-10.813,10.813-10.813,28.344,0,39.158l50.252,50.252c10.813,10.813,28.344,10.813,39.158,0l0,0
		C243.592,204.534,243.592,187.001,232.779,176.188z"/>
	<path style="fill:#FCC69D;" d="M271.936,137.031l-60.042-60.042c-10.813-10.813-28.344-10.813-39.158,0l0,0
		c-10.813,10.813-10.813,28.344,0,39.158l60.042,60.042c10.813,10.813,28.344,10.813,39.158,0l0,0
		C282.749,165.375,282.749,147.844,271.936,137.031z"/>
</g>
<path d="M509.042,355.862l-24.409-24.21c-3.923-3.891-10.255-3.864-14.145,0.058c-3.891,3.922-3.864,10.255,0.058,14.145
	l24.408,24.21c1.95,1.935,4.497,2.901,7.043,2.901c2.572,0,5.146-0.987,7.101-2.959C512.99,366.085,512.964,359.752,509.042,355.862
	z"/>
<path d="M445.617,306.882l-0.017,0.017c-3.906,3.906-3.897,10.231,0.009,14.137c1.95,1.951,4.509,2.926,7.067,2.926
	c2.565,0,5.13-0.979,7.085-2.934c3.906-3.906,3.906-10.239,0-14.146C455.856,302.976,449.525,302.976,445.617,306.882z"/>
<path d="M320.257,416.542c-2.077-2.076-4.963-3.137-7.89-2.897l-3.171,0.26c-14.637,1.2-29.105-2.006-41.737-9.085l6.428-6.451
	c38.006-2.343,73.598-18.362,100.605-45.369l97.028-97.027c14.695-14.696,14.695-38.608-0.001-53.304
	c-5.182-5.182-11.511-8.528-18.178-10.055c2.286-4.914,3.496-10.307,3.496-15.888c0-10.068-3.921-19.533-11.039-26.651
	c-5.583-5.584-12.612-9.19-20.241-10.489c4.295-13.086,1.259-28.073-9.128-38.459c-5.711-5.71-12.814-9.19-20.227-10.462
	c1.242-3.769,1.897-7.75,1.897-11.833c0-10.068-3.921-19.533-11.039-26.651c-7.119-7.118-16.584-11.039-26.651-11.039
	c-6.393,0-12.54,1.586-18.001,4.564l-0.965-1.037c-12.542-13.478-30.295-21.207-48.704-21.207h-78.54
	c-5.523,0-10.002,4.479-10.002,10.002v13.116c0,5.249,0.888,10.359,2.585,15.164c-4.524-1.879-9.419-2.866-14.465-2.866
	c-10.068,0-19.533,3.921-26.652,11.039c-10.392,10.392-13.425,25.39-9.12,38.48c-7.419,1.269-14.532,4.751-20.248,10.466
	c-7.118,7.119-11.039,16.584-11.039,26.651c0,4.076,0.653,8.05,1.89,11.811c-7.62,1.303-14.642,4.907-20.22,10.486
	c-11.477,11.477-13.99,28.577-7.539,42.516c-6.831,1.561-13.105,5.001-18.183,10.078c-14.695,14.695-14.695,38.607,0,53.303
	l19.954,19.953L2.929,391.893c-3.906,3.906-3.906,10.239,0,14.146c1.953,1.952,4.513,2.93,7.072,2.93s5.119-0.977,7.072-2.93
	l99.182-99.182c5.615,3.204,11.987,4.918,18.628,4.918c10.067,0,19.532-3.921,26.651-11.04c7.733-7.733,11.392-18.02,10.985-28.172
	c0.507,0.021,1.014,0.036,1.521,0.036c9.65-0.001,19.305-3.675,26.651-11.021c7.118-7.119,11.039-16.584,11.039-26.651
	c0-0.509-0.017-1.015-0.037-1.521c0.501,0.02,1.002,0.036,1.504,0.036c9.651,0,19.304-3.674,26.651-11.021
	c7.118-7.119,11.039-16.584,11.039-26.651c0-0.509-0.017-1.015-0.037-1.521c0.501,0.02,1.002,0.036,1.504,0.036
	c9.652,0,19.304-3.674,26.651-11.021c13.808-13.808,14.639-35.751,2.5-50.542l66.394-66.394c3.341-3.342,7.781-5.181,12.506-5.181
	s9.166,1.839,12.507,5.181c3.341,3.341,5.18,7.782,5.18,12.506c0,4.724-1.839,9.166-5.181,12.506l-9.789,9.789l-35.518,35.518
	c-3.906,3.906-3.906,10.239,0,14.146c1.953,1.952,4.513,2.93,7.072,2.93s5.119-0.977,7.072-2.93l35.518-35.518
	c6.895-6.896,18.115-6.897,25.013-0.001c6.896,6.897,6.896,18.118,0,25.014l-9.79,9.79l-25.728,25.728
	c-3.906,3.906-3.906,10.239,0,14.146c1.953,1.952,4.513,2.93,7.072,2.93s5.119-0.977,7.072-2.93l25.728-25.728
	c3.341-3.342,7.783-5.181,12.506-5.181c4.725,0,9.166,1.839,12.507,5.181c3.341,3.341,5.18,7.782,5.18,12.506
	c0,4.724-1.839,9.166-5.181,12.506l-13.437,13.437l-12.291,12.291c-3.906,3.906-3.906,10.239,0,14.146
	c1.953,1.952,4.513,2.93,7.072,2.93s5.119-0.977,7.072-2.93l12.3-12.3c6.897-6.885,18.11-6.884,25.004,0.009
	c6.897,6.896,6.897,18.117,0,25.014l-97.028,97.027c-24.364,24.365-56.745,38.47-91.178,39.72c-2.531,0.092-4.935,1.141-6.723,2.937
	l-89.632,89.964c-3.899,3.913-3.888,10.246,0.026,14.145c1.951,1.944,4.505,2.917,7.059,2.917c2.565,0,5.132-0.981,7.085-2.943
	l65.927-66.17c16.746,10.743,36.44,15.851,56.465,14.527l51.598,51.599c1.953,1.952,4.513,2.93,7.072,2.93s5.119-0.977,7.072-2.93
	c3.906-3.906,3.906-10.239,0-14.146L320.257,416.542z M224.199,43.465h68.538c12.875,0,25.29,5.405,34.062,14.831l0.407,0.437
	l-59.712,59.712l-27.472-27.472c3.115,0.665,6.318,1.018,9.578,1.017c0.073,0,0.147,0,0.221,0l27.448-0.129
	c5.523-0.026,9.981-4.525,9.955-10.049c-0.026-5.508-4.499-9.955-10.001-9.955c-0.016,0-0.032,0-0.048,0l-27.448,0.129
	c-0.042,0-0.082,0-0.124,0c-6.763,0-13.124-2.625-17.92-7.398c-4.826-4.804-7.483-11.198-7.483-18.008L224.199,43.465
	L224.199,43.465z M147.39,286.591c-3.341,3.342-7.783,5.181-12.506,5.181c-4.725,0-9.166-1.839-12.506-5.181l-27.026-27.025
	c-6.896-6.896-6.896-18.118,0-25.014c3.341-3.342,7.783-5.181,12.507-5.181c4.724,0,9.166,1.839,12.506,5.181l27.026,27.025
	C154.286,268.473,154.286,279.694,147.39,286.591z M191.729,234.926c0,4.724-1.839,9.166-5.18,12.506
	c-6.897,6.896-18.119,6.896-25.014,0l-27.026-27.026l-13.438-13.438c-6.896-6.896-6.896-18.117,0-25.013
	c3.341-3.342,7.783-5.181,12.506-5.181c4.725,0,9.166,1.839,12.506,5.181l40.463,40.463c0,0,0,0,0.001,0
	C189.889,225.76,191.729,230.202,191.729,234.926z M230.886,195.768c0,4.724-1.839,9.166-5.18,12.506
	c-6.897,6.895-18.118,6.896-25.014,0l-50.253-50.253c-3.341-3.341-5.18-7.782-5.18-12.506c0-4.724,1.839-9.166,5.181-12.506
	c3.448-3.448,7.978-5.172,12.506-5.172c4.526,0,9.051,1.722,12.498,5.164l22.904,22.904l27.356,27.356h0.001
	C229.047,186.602,230.886,191.043,230.886,195.768z M264.864,169.116c-6.896,6.896-18.117,6.896-25.013,0l-50.253-50.253
	c-0.005-0.005-0.011-0.01-0.017-0.016l-9.773-9.773c-6.896-6.897-6.896-18.118,0-25.014c3.448-3.449,7.978-5.173,12.507-5.173
	c4.529,0,9.059,1.724,12.506,5.173l60.041,60.041c3.342,3.341,5.181,7.783,5.181,12.506
	C270.044,161.333,268.206,165.776,264.864,169.116z"/>
<g>
</g>
<g>
</g>
<g>
</g>
<g>
</g>
<g>
</g>
<g>
</g>
<g>
</g>
<g>
</g>
<g>
</g>
<g>
</g>
<g>
</g>
<g>
</g>
<g>
</g>
<g>
</g>
<g>
</g>
</svg>
