<?xml version="1.0" encoding="iso-8859-1"?>
<!-- Generator: Adobe Illustrator 19.0.0, SVG Export Plug-In . SVG Version: 6.00 Build 0)  -->
<svg version="1.1" id="Layer_1" xmlns="http://www.w3.org/2000/svg" xmlns:xlink="http://www.w3.org/1999/xlink" x="0px" y="0px"
	 viewBox="0 0 512.001 512.001" style="enable-background:new 0 0 512.001 512.001;" xml:space="preserve">
<g>
	<g>
		<path d="M504.008,223.961c-4.121-2.587-36.412-21.931-49.246-27.802l-15.903-38.392c4.725-12.695,13.752-48.308,15.164-54.482
			c1.307-5.724-0.418-11.718-4.57-15.87l-24.868-24.867c-4.151-4.152-10.147-5.878-15.87-4.57
			c-4.682,1.071-41.226,10.23-54.482,15.164L315.84,57.239c-5.618-12.28-24.386-43.807-27.802-49.246
			c-3.121-4.973-8.581-7.992-14.453-7.992h-35.17c-5.872,0-11.332,3.019-14.454,7.992c-2.587,4.121-21.931,36.412-27.802,49.246
			l-38.392,15.903c-12.695-4.725-48.308-13.752-54.482-15.164c-5.724-1.307-11.718,0.419-15.87,4.57L62.547,87.416
			c-4.152,4.152-5.878,10.146-4.57,15.87c1.071,4.682,10.23,41.226,15.164,54.482L57.238,196.16
			c-12.28,5.618-43.807,24.386-49.246,27.802C3.019,227.083,0,232.543,0,238.415v35.17c0,5.872,3.019,11.332,7.992,14.454
			c4.121,2.587,36.412,21.931,49.246,27.802l15.903,38.392c-4.725,12.695-13.752,48.308-15.164,54.482
			c-1.307,5.724,0.418,11.718,4.57,15.87l24.868,24.868c4.152,4.152,10.148,5.879,15.87,4.57
			c4.682-1.071,41.226-10.23,54.482-15.164l38.392,15.903c5.618,12.28,24.386,43.807,27.802,49.246
			c3.122,4.973,8.582,7.992,14.454,7.992h35.17c5.872,0,11.332-3.019,14.454-7.992c2.587-4.121,21.931-36.412,27.802-49.246
			l38.392-15.903c12.695,4.725,48.308,13.752,54.482,15.164c5.726,1.31,11.719-0.418,15.87-4.57l24.868-24.868
			c4.152-4.152,5.878-10.146,4.57-15.87c-1.071-4.682-10.23-41.226-15.164-54.482l15.903-38.392
			c12.28-5.618,43.807-24.386,49.246-27.802c4.973-3.122,7.992-8.582,7.992-14.454v-35.17
			C512,232.543,508.981,227.083,504.008,223.961z M256,367.605c-61.539,0-111.605-50.066-111.605-111.605
			S194.461,144.396,256,144.396s111.605,50.066,111.605,111.605S317.539,367.605,256,367.605z"/>
	</g>
</g>
<g>
</g>
<g>
</g>
<g>
</g>
<g>
</g>
<g>
</g>
<g>
</g>
<g>
</g>
<g>
</g>
<g>
</g>
<g>
</g>
<g>
</g>
<g>
</g>
<g>
</g>
<g>
</g>
<g>
</g>
</svg>
