<?xml version="1.0" encoding="iso-8859-1"?>
<!-- Generator: Adobe Illustrator 19.0.0, SVG Export Plug-In . SVG Version: 6.00 Build 0)  -->
<svg version="1.1" id="Capa_1" xmlns="http://www.w3.org/2000/svg" xmlns:xlink="http://www.w3.org/1999/xlink" x="0px" y="0px"
	 viewBox="0 0 512 512" style="enable-background:new 0 0 512 512;" xml:space="preserve">
<path style="fill:#303C42;" d="M490.667,153.993V96c0-41.167-33.5-74.667-74.667-74.667h-57.992C326.723,7.68,292.259,0,256,0
	s-70.723,7.68-102.008,21.333H96c-41.167,0-74.667,33.5-74.667,74.667v57.993C7.68,185.279,0,219.742,0,256
	s7.68,70.721,21.333,102.007V416c0,41.167,33.5,74.667,74.667,74.667h57.992C185.277,504.32,219.741,512,256,512
	s70.723-7.68,102.008-21.333H416c41.167,0,74.667-33.5,74.667-74.667v-57.993C504.32,326.721,512,292.258,512,256
	S504.32,185.279,490.667,153.993z M96,469.333c-29.417,0-53.333-23.927-53.333-53.333v-18.797
	c18.987,28.591,43.538,53.142,72.13,72.13H96z M42.667,114.797V96c0-29.406,23.917-53.333,53.333-53.333h18.797
	C86.204,61.655,61.654,86.206,42.667,114.797z M256,384c-70.583,0-128-57.417-128-128s57.417-128,128-128s128,57.417,128,128
	S326.583,384,256,384z M469.333,416c0,29.406-23.917,53.333-53.333,53.333h-18.797c28.592-18.988,53.143-43.539,72.13-72.13V416z
	 M469.333,114.797c-18.987-28.591-43.538-53.142-72.13-72.13H416c29.417,0,53.333,23.927,53.333,53.333V114.797z"/>
<path style="fill:#FFFFFF;" d="M21.333,256c0-13.104,1.348-25.872,3.423-38.397l84.081,14.018
	c-1.315,7.953-2.171,16.06-2.171,24.379c0,8.319,0.855,16.426,2.171,24.379l-84.079,14.022
	C22.682,281.875,21.333,269.105,21.333,256z"/>
<g>
	<path style="fill:#E53935;" d="M113.698,210.807L29.214,196.72c21.4-81.758,85.741-146.1,167.495-167.503l14.098,84.483
		C164.767,128.359,128.357,164.766,113.698,210.807z"/>
	<path style="fill:#E53935;" d="M113.698,301.194c14.659,46.042,51.069,82.447,97.108,97.105l-14.098,84.483
		c-81.754-21.402-146.094-85.745-167.493-167.5L113.698,301.194z"/>
</g>
<path style="fill:#FFFFFF;" d="M490.667,256c0,13.105-1.349,25.875-3.424,38.401l-84.078-14.022
	c1.315-7.953,2.169-16.06,2.169-24.379c0-8.319-0.854-16.426-2.169-24.379l84.079-14.018
	C489.319,230.128,490.667,242.896,490.667,256z"/>
<g>
	<path style="fill:#E53935;" d="M398.302,210.807c-14.659-46.042-51.069-82.448-97.108-97.107l14.098-84.483
		c81.754,21.402,146.095,85.745,167.495,167.503L398.302,210.807z"/>
	<path style="fill:#E53935;" d="M398.302,301.194l84.483,14.089c-21.4,81.755-85.74,146.098-167.493,167.5l-14.098-84.483
		C347.233,383.641,383.643,347.236,398.302,301.194z"/>
</g>
<g>
	<path style="fill:#FFFFFF;" d="M294.406,24.758l-14.03,84.078c-7.952-1.314-16.057-2.169-24.376-2.169
		c-8.319,0-16.424,0.855-24.376,2.171l-14.03-84.079c12.527-2.076,25.299-3.424,38.406-3.424
		C269.107,21.333,281.879,22.682,294.406,24.758z"/>
	<path style="fill:#FFFFFF;" d="M217.594,487.242l14.03-84.079c7.952,1.315,16.057,2.171,24.376,2.171
		c8.319,0,16.424-0.855,24.376-2.169l14.03,84.078c-12.527,2.076-25.299,3.424-38.406,3.424
		C242.893,490.667,230.121,489.318,217.594,487.242z"/>
</g>
<linearGradient id="SVGID_1_" gradientUnits="userSpaceOnUse" x1="-46.9079" y1="640.1765" x2="-22.4983" y2="628.7923" gradientTransform="matrix(21.3333 0 0 -21.3333 996.3334 13791.667)">
	<stop  offset="0" style="stop-color:#FFFFFF;stop-opacity:0.2"/>
	<stop  offset="1" style="stop-color:#FFFFFF;stop-opacity:0"/>
</linearGradient>
<path style="fill:url(#SVGID_1_);" d="M490.667,153.993V96c0-41.167-33.5-74.667-74.667-74.667h-57.992
	C326.723,7.68,292.259,0,256,0s-70.723,7.68-102.008,21.333H96c-41.167,0-74.667,33.5-74.667,74.667v57.993
	C7.68,185.279,0,219.742,0,256s7.68,70.721,21.333,102.007V416c0,41.167,33.5,74.667,74.667,74.667h57.992
	C185.277,504.32,219.741,512,256,512s70.723-7.68,102.008-21.333H416c41.167,0,74.667-33.5,74.667-74.667v-57.993
	C504.32,326.721,512,292.258,512,256S504.32,185.279,490.667,153.993z M96,469.333c-29.417,0-53.333-23.927-53.333-53.333v-18.797
	c18.987,28.591,43.538,53.142,72.13,72.13H96z M42.667,114.797V96c0-29.406,23.917-53.333,53.333-53.333h18.797
	C86.204,61.655,61.654,86.206,42.667,114.797z M256,384c-70.583,0-128-57.417-128-128s57.417-128,128-128s128,57.417,128,128
	S326.583,384,256,384z M469.333,416c0,29.406-23.917,53.333-53.333,53.333h-18.797c28.592-18.988,53.143-43.539,72.13-72.13V416z
	 M469.333,114.797c-18.987-28.591-43.538-53.142-72.13-72.13H416c29.417,0,53.333,23.927,53.333,53.333V114.797z"/>
<path style="opacity:0.1;enable-background:new    ;" d="M33.871,329.169c24.781,74.999,85.846,133.458,162.837,153.613
	l9.514-57.013C135.26,420.435,73.232,383.624,33.871,329.169z"/>
<path style="opacity:0.1;enable-background:new    ;" d="M487.242,294.401c2.076-12.526,3.424-25.296,3.424-38.401
	c0-13.104-1.348-25.872-3.423-38.397l-30.818,5.138c-2.93,22.332-8.884,43.682-17.635,63.579L487.242,294.401z"/>
<path style="opacity:0.1;enable-background:new    ;" d="M458.221,200.816l24.565-4.096c-7.033-26.867-19.082-51.574-34.483-73.773
	c6.715,21.836,10.363,45.016,10.363,69.053C458.667,194.977,458.331,197.867,458.221,200.816z"/>
<path style="opacity:0.1;enable-background:new    ;" d="M303.569,412.534l11.723,70.249
	c81.754-21.402,146.094-85.745,167.493-167.5l-53.921-8.992C401.478,355.271,357.02,393.237,303.569,412.534z"/>
<path style="opacity:0.1;enable-background:new    ;" d="M217.594,487.242c12.527,2.076,25.299,3.424,38.406,3.424
	c13.107,0,25.879-1.349,38.406-3.424L283,418.888c-17.719,4.598-36.181,7.289-55.267,7.59L217.594,487.242z"/>
<g>
</g>
<g>
</g>
<g>
</g>
<g>
</g>
<g>
</g>
<g>
</g>
<g>
</g>
<g>
</g>
<g>
</g>
<g>
</g>
<g>
</g>
<g>
</g>
<g>
</g>
<g>
</g>
<g>
</g>
</svg>
