<?xml version="1.0" encoding="iso-8859-1"?>
<!-- Generator: Adobe Illustrator 19.0.0, SVG Export Plug-In . SVG Version: 6.00 Build 0)  -->
<svg version="1.1" id="Capa_1" xmlns="http://www.w3.org/2000/svg" xmlns:xlink="http://www.w3.org/1999/xlink" x="0px" y="0px"
	 viewBox="0 0 512 512" style="enable-background:new 0 0 512 512;" xml:space="preserve">
<g>
	<g>
		<path d="M333.054,198.948c-1.86-1.86-4.44-2.93-7.071-2.93c-2.63,0-5.211,1.069-7.071,2.93c-1.86,1.86-2.93,4.44-2.93,7.071
			s1.07,5.211,2.93,7.07c1.86,1.86,4.44,2.931,7.071,2.931c2.63,0,5.21-1.07,7.071-2.931c1.86-1.859,2.93-4.439,2.93-7.07
			C335.984,203.377,334.914,200.808,333.054,198.948z"/>
	</g>
</g>
<g>
	<g>
		<path d="M499.488,5.648c-0.112-0.086-0.229-0.164-0.344-0.245C494.28,2.003,488.37,0,481.997,0H201.972
			c-5.974,0-11.539,1.761-16.22,4.782c-0.372,0.218-0.731,0.46-1.077,0.728c-7.679,5.44-12.706,14.386-12.706,24.492v156.014
			c0,16.543,13.459,30.003,30.003,30.003h74.007c5.524,0,10.001-4.478,10.001-10.001c0-5.522-4.477-10.001-10.001-10.001h-64.197
			l82.079-95.902l42.271,30.505c1.747,1.26,3.799,1.891,5.853,1.891c2.048,0,4.096-0.628,5.841-1.883l42.332-30.455l82.031,95.844
			h-102.2c-5.523,0-10.001,4.478-10.001,10.001c0,5.523,4.477,10.001,10.001,10.001h112.01c16.544,0,30.003-13.459,30.003-30.003
			V30.003C512,19.983,507.057,11.101,499.488,5.648z M192.202,188.136c-0.148-0.684-0.231-1.391-0.231-2.119V30.003
			c0-1.07,0.173-2.099,0.486-3.067l85.131,61.436L192.202,188.136z M341.995,110.185L217.03,20.002h250.318L341.995,110.185z
			 M491.998,186.017c0,0.727-0.083,1.435-0.231,2.119L406.45,88.452l85.141-61.253c0.261,0.891,0.407,1.83,0.407,2.803V186.017z"/>
	</g>
</g>
<g>
	<g>
		<path d="M447.994,437.118c-1.499,0-2.921,0.33-4.197,0.921h-4.882c-5.523,0-10.001,4.478-10.001,10.001
			c0,5.522,4.477,10.001,10.001,10.001h9.08c5.523,0,10.001-4.478,10.001-10.001v-0.921
			C457.995,441.597,453.518,437.118,447.994,437.118z"/>
	</g>
</g>
<g>
	<g>
		<path d="M447.994,387.114c-5.523,0-10.001,4.478-10.001,10.001v10.001c0,5.523,4.477,10.001,10.001,10.001
			s10.001-4.478,10.001-10.001v-10.001C457.995,391.592,453.518,387.114,447.994,387.114z"/>
	</g>
</g>
<g>
	<g>
		<path d="M398.911,438.039H388.91c-5.523,0-10.001,4.478-10.001,10.001c0,5.522,4.477,10.001,10.001,10.001h10.001
			c5.524,0,10.001-4.478,10.001-10.001C408.912,442.518,404.434,438.039,398.911,438.039z"/>
	</g>
</g>
<g>
	<g>
		<path d="M447.994,237.1c-5.523,0-10.001,4.478-10.001,10.001v10.001c0,5.522,4.477,10.001,10.001,10.001
			s10.001-4.478,10.001-10.001v-10.001C457.995,241.579,453.518,237.1,447.994,237.1z"/>
	</g>
</g>
<g>
	<g>
		<path d="M447.994,287.105c-5.523,0-10.001,4.478-10.001,10.001v10.001c0,5.522,4.477,10.001,10.001,10.001
			s10.001-4.478,10.001-10.001v-10.001C457.995,291.583,453.518,287.105,447.994,287.105z"/>
	</g>
</g>
<g>
	<g>
		<path d="M447.994,337.109c-5.523,0-10.001,4.478-10.001,10.001v10.001c0,5.523,4.477,10.001,10.001,10.001
			s10.001-4.478,10.001-10.001V347.11C457.995,341.588,453.518,337.109,447.994,337.109z"/>
	</g>
</g>
<g>
	<g>
		<path d="M73.961,54.005H63.96c-5.523,0-10.001,4.478-10.001,10.001c0,5.523,4.478,10.001,10.001,10.001h10.001
			c5.523,0,10.001-4.478,10.001-10.001C83.961,58.483,79.484,54.005,73.961,54.005z"/>
	</g>
</g>
<g>
	<g>
		<path d="M123.965,54.005h-10.001c-5.523,0-10.001,4.478-10.001,10.001c0,5.523,4.478,10.001,10.001,10.001h10.001
			c5.523,0,10.001-4.478,10.001-10.001C133.966,58.483,129.489,54.005,123.965,54.005z"/>
	</g>
</g>
<g>
	<g>
		<path d="M63.96,94.008c-5.523,0-10.001,4.478-10.001,10.001v10.001c0,5.523,4.478,10.001,10.001,10.001
			c5.523,0,10.001-4.478,10.001-10.001v-10.001C73.961,98.487,69.483,94.008,63.96,94.008z"/>
	</g>
</g>
<g>
	<g>
		<path d="M63.96,144.013c-5.523,0-10.001,4.478-10.001,10.001v10.001c0,5.523,4.478,10.001,10.001,10.001
			c5.523,0,10.001-4.478,10.001-10.001v-10.001C73.961,148.491,69.483,144.013,63.96,144.013z"/>
	</g>
</g>
<g>
	<g>
		<path d="M110.604,405.356c-1.86-1.86-4.44-2.93-7.071-2.93c-2.64,0-5.211,1.07-7.081,2.93c-1.86,1.86-2.92,4.44-2.92,7.071
			s1.06,5.21,2.92,7.071c1.87,1.859,4.45,2.93,7.081,2.93s5.2-1.07,7.071-2.93c1.86-1.86,2.93-4.44,2.93-7.071
			S112.464,407.217,110.604,405.356z"/>
	</g>
</g>
<g>
	<g>
		<path d="M311.293,415.936l-52.694-52.694c-15.122-15.121-39.729-15.122-54.853,0.001l-3.433,3.434
			c-4.768,4.77-12.528,4.769-17.297,0l-37.692-37.692c-2.31-2.31-3.582-5.381-3.582-8.648s1.272-6.338,3.583-8.648l3.433-3.434
			c15.123-15.123,15.123-39.73,0-54.853l-52.695-52.695c-15.123-15.122-39.731-15.122-54.852,0l-12.609,12.608
			c-38.136,38.137-38.136,100.19,0,138.326l34.375,34.375c3.905,3.904,10.238,3.904,14.144,0c3.905-3.905,3.905-10.238,0-14.144
			l-34.375-34.375c-30.338-30.338-30.338-79.701,0-110.039l12.608-12.608c7.324-7.325,19.241-7.325,26.565,0l52.694,52.694
			c7.325,7.324,7.325,19.241,0,26.565l-3.433,3.434c-1.261,1.261-2.397,2.612-3.418,4.032l-41.621-41.621
			c-3.905-3.904-10.238-3.904-14.144,0c-3.905,3.905-3.905,10.238,0,14.144l49.963,49.962c0.824,7.199,4.019,13.865,9.22,19.066
			l37.692,37.692c12.568,12.566,33.016,12.567,45.584-0.001l3.434-3.434c7.324-7.325,19.241-7.325,26.565,0l52.695,52.694
			c3.547,3.548,5.502,8.266,5.502,13.282c0,5.016-1.954,9.734-5.503,13.282l-7.16,7.16l-47.961-47.961
			c-3.905-3.904-10.238-3.904-14.144,0c-3.905,3.905-3.905,10.238,0,14.144l47.268,47.268
			c-30.403,22.039-73.274,19.378-100.652-8.002l-25.898-25.898c-3.905-3.903-10.238-3.904-14.143,0
			c-3.905,3.905-3.905,10.238,0,14.144l25.898,25.898C179.425,502.465,204.473,512,229.521,512s50.095-9.534,69.164-28.603
			l12.607-12.608c7.327-7.326,11.361-17.065,11.361-27.426S318.618,423.262,311.293,415.936z"/>
	</g>
</g>
<g>
</g>
<g>
</g>
<g>
</g>
<g>
</g>
<g>
</g>
<g>
</g>
<g>
</g>
<g>
</g>
<g>
</g>
<g>
</g>
<g>
</g>
<g>
</g>
<g>
</g>
<g>
</g>
<g>
</g>
</svg>
